<svg width="52" height="32" viewBox="0 0 52 32" fill="none" xmlns="http://www.w3.org/2000/svg">
<path d="M0 4C0 1.79086 1.79086 0 4 0H52V32H4C1.79086 32 0 30.2091 0 28V4Z" fill="#FF9B39"/>
<path d="M10 9.69541H13.3133V22.5H10V9.69541ZM34.4941 22.3046H37.477C37.601 21.8155 37.6694 21.5435 37.6832 21.4888C37.9533 21.8169 38.2503 22.0633 38.5762 22.2266C38.9008 22.3907 39.3866 22.4724 39.7627 22.4724C40.2863 22.4724 40.7379 22.3345 41.1191 22.0582C41.4996 21.7828 41.7422 21.4561 41.8452 21.0808C41.9484 20.7046 42 20.133 42 19.3646V15.7721C42 14.9994 41.9826 14.495 41.9484 14.258C41.9142 14.0212 41.8126 13.7798 41.6435 13.5328C41.4742 13.2856 41.2281 13.0939 40.9056 12.9568C40.5833 12.8199 40.2027 12.7512 39.7643 12.7512C39.3829 12.7512 38.8951 12.8278 38.5698 12.9787C38.2452 13.1296 37.9505 13.3586 37.686 13.6655V9.5H34.4941V22.3046ZM25.8403 22.4161V9.61151H28.3119C29.9159 9.61151 30.8381 9.68586 31.4038 9.83312C31.9687 9.98039 32.3984 10.2225 32.6932 10.5593C32.9874 10.8961 33.1711 11.2715 33.2452 11.6848C33.3184 12.0974 33.3658 12.9095 33.3658 14.1211V18.6175C33.3658 19.7655 33.3018 20.5331 33.1936 20.9195C33.0861 21.3066 32.898 21.6091 32.6301 21.8279C32.3614 22.0458 32.0304 22.199 31.6361 22.2857C31.3816 22.3422 30.816 22.3842 29.94 22.4135L29.8542 22.4161H25.8403ZM18.7144 9.68464C18.8372 10.4441 18.9652 11.3287 19.0996 12.3409C19.1309 12.5574 19.2892 13.6421 19.5738 15.5935L20.3413 9.61151H24.6698V22.4161H21.777L21.766 13.7733L20.6079 22.4161H18.5406L17.3193 13.9614L17.309 22.4161H14.4069V9.61151H18.7024L18.7144 9.68464ZM38.7114 20.3721C38.6503 20.5346 38.3832 20.617 38.1813 20.617C37.9838 20.617 37.8523 20.5382 37.7856 20.3802C37.7188 20.2226 37.686 19.8632 37.686 19.3006V15.9165C37.686 15.3333 37.7151 14.9695 37.774 14.8245C37.8321 14.6809 37.9598 14.608 38.1574 14.608C38.3592 14.608 38.6301 14.6905 38.6997 14.8558C38.7687 15.0213 38.8037 15.375 38.8037 15.9165V19.1976C38.7826 19.872 38.7521 20.2634 38.7114 20.3721ZM29.1505 11.8014V20.2065H29.1728C29.6353 20.2037 29.9212 20.1082 30.0298 19.9187C30.1395 19.7261 30.1947 19.2043 30.1947 18.352V13.3876C30.1947 12.8089 30.1759 12.4386 30.1395 12.2753C30.1033 12.112 30.0191 11.9923 29.8884 11.9158C29.7597 11.8412 29.5191 11.8026 29.1675 11.8014H29.1505Z" fill="black"/>
</svg>
