<svg width="42" height="32" viewBox="0 0 42 32" fill="none" xmlns="http://www.w3.org/2000/svg">
<path d="M0 4C0 1.79086 1.79086 0 4 0H42V32H4C1.79086 32 0 30.2091 0 28V4Z" fill="#F93A1E"/>
<path fill-rule="evenodd" clip-rule="evenodd" d="M21.2515 26.8104C22.5606 26.411 23.0997 25.6781 23.0855 24.3163C23.0806 23.8591 22.9792 23.2205 22.8598 22.8963C22.2327 21.1919 22.2379 21.2138 22.3899 20.8712C22.4715 20.6874 22.6849 20.4683 22.8642 20.3845C23.2966 20.1822 23.5549 20.3564 24.1393 21.2449C24.9689 22.5061 26.4634 23.9402 27.4337 24.407C28.2116 24.7807 28.4303 24.8257 29.2467 24.778C30.0576 24.7311 30.2699 24.6573 30.9216 24.1963C31.7774 23.5911 32.0077 23.0982 31.9998 21.8909C31.9916 20.6813 31.3806 19.6828 30.1658 18.8938C29.4227 18.4109 27.841 17.9141 26.6899 17.8018C25.2224 17.6584 24.7042 17.4127 24.5171 16.7699C24.3347 16.1451 24.5264 15.6326 25.1078 15.1908C25.4039 14.9655 25.7667 14.8897 26.8613 14.824C27.7426 14.7713 28.3925 14.659 28.6597 14.5137C30.5712 13.4748 30.6955 10.1044 28.8705 8.80171C28.3599 8.43721 28.1712 8.38492 27.3865 8.38953C25.5795 8.39992 24.3572 9.6149 23.7807 11.9753C23.7339 12.166 23.5531 12.4801 23.3782 12.6735C23.0091 13.0826 22.3151 13.1449 21.7093 12.8235C21.0991 12.499 21.0205 11.7877 21.372 9.75332C21.8089 7.22223 21.5716 6.16219 20.4125 5.46472C19.6747 5.02064 18.3629 4.86492 17.5835 5.12906C16.8962 5.36206 16.0011 6.30599 15.7948 7.01498C15.3792 8.44452 15.7087 9.35037 17.2503 11.0121C17.898 11.7104 18.467 12.4098 18.5157 12.5662C18.7365 13.2818 17.8965 14.1031 17.1219 13.9285C16.6802 13.8285 16.2597 13.3891 15.5762 12.3109C14.4778 10.5781 12.9436 10.0248 11.4323 10.8168C10.1322 11.4981 9.79563 13.0373 10.6589 14.353C11.1598 15.1166 12.059 15.6256 13.4442 15.9294C15.45 16.3696 16.0149 16.8168 15.4676 17.5312C15.1838 17.9018 15.1569 17.908 14.2228 17.8034C12.8134 17.6461 12.2672 17.7042 11.4844 18.0944C10.6683 18.5012 10.3126 18.9511 10.0906 19.8569C9.64514 21.6737 10.8918 23.2831 12.7374 23.2751C13.7092 23.2704 14.4471 22.8583 15.6806 21.6318C17.0433 20.2764 17.2866 20.1334 17.7265 20.4294C18.2079 20.7536 18.2682 21.2338 17.9384 22.1193C17.1882 24.1325 17.8804 26.2256 19.492 26.8154C20.1673 27.0627 20.4279 27.0619 21.2515 26.8108V26.8104Z" fill="white"/>
</svg>
